<svg width="155" height="55" viewBox="0 0 155 56" fill="none" xmlns="http://www.w3.org/2000/svg">
<path d="M3.05786 12.2119H10.023C11.1662 12.2119 12.0545 12.2823 12.6877 12.4231C13.3384 12.564 13.9189 12.8368 14.4289 13.2417C15.6953 14.1922 16.3285 15.4684 16.3285 17.0703C16.3285 18.8834 15.5018 20.1684 13.8485 20.9253C14.8511 21.2069 15.6513 21.779 16.2494 22.6416C16.8474 23.5041 17.1464 24.5163 17.1464 25.6781C17.1464 27.5616 16.4516 29.0314 15.0621 30.0876C14.5696 30.4572 13.9716 30.7213 13.2681 30.8797C12.5645 31.0381 11.5444 31.1173 10.2076 31.1173H3.05786V12.2119ZM5.69616 14.5883V20.0804H10.1549C11.3157 20.0804 12.1688 19.8691 12.714 19.4467C13.2769 19.0066 13.5583 18.3465 13.5583 17.4663C13.5583 16.4454 13.2769 15.7149 12.714 15.2748C12.1688 14.8171 11.2366 14.5883 9.91744 14.5883H5.69616ZM5.69616 22.4567V28.741H9.9702C11.3069 28.741 12.3711 28.5297 13.1625 28.1073C13.9716 27.6672 14.3762 26.8399 14.3762 25.6253C14.3762 23.5129 12.9867 22.4567 10.2076 22.4567H5.69616Z" fill="#363431"/>
<path d="M20.3072 21.8495C20.3072 19.8251 20.6765 18.056 21.4153 16.5422C22.1716 15.0284 23.2533 13.8666 24.6604 13.0568C26.0675 12.2471 27.6944 11.8422 29.5412 11.8422C30.9307 11.8422 32.1795 12.0711 33.2876 12.5288C34.4133 12.9688 35.3719 13.6113 36.1634 14.4563C36.9548 15.3012 37.5616 16.3046 37.9838 17.4663C38.4059 18.6281 38.617 19.9748 38.617 21.5062C38.617 23.3545 38.2564 25.0444 37.5353 26.5758C36.8317 28.0897 35.7764 29.2866 34.3693 30.1668C32.9798 31.0293 31.3177 31.4606 29.3829 31.4606C27.5009 31.4606 25.8828 31.0733 24.5285 30.2988C23.1741 29.5243 22.1276 28.4065 21.3889 26.9455C20.6677 25.4668 20.3072 23.7682 20.3072 21.8495ZM23.0774 21.7966C23.0774 24.0146 23.649 25.7837 24.7923 27.1039C25.9355 28.4241 27.5009 29.0842 29.4885 29.0842C31.4936 29.0842 33.0589 28.4153 34.1846 27.0775C35.3279 25.7221 35.8995 23.865 35.8995 21.5062C35.8995 20.7669 35.838 20.0804 35.7148 19.4467C35.5917 18.7954 35.3982 18.1881 35.1344 17.6248C34.6068 16.5158 33.8504 15.6709 32.8655 15.09C31.8981 14.5091 30.7724 14.2186 29.4885 14.2186C27.4658 14.2186 25.8916 14.8963 24.7659 16.2518C23.6402 17.6072 23.0774 19.4555 23.0774 21.7966Z" fill="#363431"/>
<path d="M43.2363 12.2119H49.6209C51.2039 12.2119 52.3999 12.2999 53.209 12.4759C54.0357 12.652 54.792 13.0216 55.478 13.5849C56.4805 14.3595 57.272 15.4332 57.8524 16.8062C58.4329 18.1793 58.7231 19.7459 58.7231 21.5062C58.7231 22.9672 58.5032 24.3491 58.0635 25.6517C57.6238 26.9543 57.0082 28.0368 56.2167 28.8994C55.4428 29.7443 54.5721 30.3252 53.6048 30.6421C52.655 30.9589 51.3886 31.1173 49.8056 31.1173H43.2363V12.2119ZM45.8746 14.5883V28.741H49.6473C51.4414 28.741 52.7253 28.4681 53.4992 27.9224C55.1702 26.7078 56.0056 24.5515 56.0056 21.4534C56.0056 20.0276 55.8033 18.813 55.3988 17.8096C54.9943 16.7886 54.4051 16.0141 53.6311 15.486C52.7341 14.8875 51.3798 14.5883 49.5682 14.5883H45.8746Z" fill="#363431"/>
<path d="M60.6958 12.2119H63.809L69.4286 21.1629L74.8635 12.2119H77.9767L70.7477 23.6449V31.1173H68.083V23.6449L60.6958 12.2119Z" fill="#363431"/>
<path d="M88.1545 12.2119H103.298V14.5883H97.0456V31.1173H94.3545V14.5883H88.1545V12.2119Z" fill="#363431"/>
<path d="M107.181 12.2119H109.819V31.1173H107.181V12.2119Z" fill="#363431"/>
<path d="M115.702 12.2119H119.448L124.25 28.0016L129.025 12.2119H132.745V31.1173H130.081V15.9613L125.411 31.1173H122.957L118.34 15.9085V31.1173H115.702V12.2119Z" fill="#363431"/>
<path d="M138.677 12.2119H152.238V14.5883H141.315V20.1332H151.42V22.5096H141.315V28.741H152.369V31.1173H138.677V12.2119Z" fill="#363431"/>
<path d="M3.01501 48.7817H8.10033V49.6729H4.00438V51.7522H7.79363V52.6434H4.00438V54.9801H8.1498V55.8713H3.01501V48.7817Z" fill="#363431"/>
<path d="M21.3558 48.7817H22.3947L24.9274 55.8713H23.849L23.1466 53.7622H20.4258L19.6838 55.8713H18.6252L21.3558 48.7817ZM21.8307 49.861L20.7523 52.9602H22.8696L21.8307 49.861Z" fill="#363431"/>
<path d="M35.3237 53.5048H36.3625C36.3625 53.8547 36.3988 54.122 36.4714 54.3068C36.5175 54.4719 36.6527 54.6303 36.877 54.7821C37.2266 54.9999 37.6751 55.1089 38.2225 55.1089C38.5523 55.1089 38.8524 55.0626 39.1229 54.9702C39.3933 54.8778 39.5945 54.7458 39.7264 54.5742C39.8649 54.4025 39.9341 54.2078 39.9341 53.99C39.9341 53.6335 39.6472 53.3497 39.0734 53.1384L36.9265 52.3364C36.0426 52.0196 35.6007 51.4717 35.6007 50.6927C35.6007 50.3495 35.67 50.0524 35.8085 49.8016C35.947 49.5442 36.1482 49.323 36.412 49.1382C36.6297 48.9864 36.9001 48.861 37.2233 48.7619C37.5201 48.6827 37.8235 48.6431 38.1335 48.6431C39.1822 48.6431 39.9341 48.9633 40.3892 49.6036C40.4948 49.7554 40.5739 49.9369 40.6267 50.1482C40.686 50.3594 40.7157 50.6201 40.7157 50.9304H39.6769C39.6769 50.5673 39.6241 50.2967 39.5186 50.1185C39.4131 49.96 39.2284 49.8247 38.9646 49.7125C38.7007 49.5937 38.4171 49.5343 38.1137 49.5343C37.6652 49.5343 37.3024 49.6399 37.0254 49.8511C36.755 50.0557 36.6198 50.3066 36.6198 50.6036C36.6198 50.8149 36.6725 50.9799 36.7781 51.0987C36.8836 51.2109 37.0782 51.3198 37.3618 51.4255L39.6274 52.2671C40.5245 52.5972 40.973 53.1351 40.973 53.8811C40.973 54.2111 40.8872 54.5247 40.7157 54.8217C40.5508 55.1188 40.32 55.3663 40.0232 55.5643C39.6076 55.8548 38.9942 56 38.183 56C37.2596 56 36.5505 55.8053 36.0558 55.4158C35.5677 55.0263 35.3237 54.4686 35.3237 53.7424V53.5048Z" fill="#363431"/>
<path d="M51.2802 48.7817H52.4476L54.555 52.1384L56.5931 48.7817H57.7605L55.0496 53.0691V55.8713H54.0504V53.0691L51.2802 48.7817Z" fill="#363431"/>
<path d="M80.662 53.5048H81.7008C81.7008 53.8547 81.7371 54.122 81.8096 54.3068C81.8558 54.4719 81.991 54.6303 82.2153 54.7821C82.5649 54.9999 83.0134 55.1089 83.5608 55.1089C83.8906 55.1089 84.1907 55.0626 84.4611 54.9702C84.7316 54.8778 84.9327 54.7458 85.0646 54.5742C85.2032 54.4025 85.2724 54.2078 85.2724 53.99C85.2724 53.6335 84.9855 53.3497 84.4117 53.1384L82.2647 52.3364C81.3809 52.0196 80.939 51.4717 80.939 50.6927C80.939 50.3495 81.0083 50.0524 81.1468 49.8016C81.2853 49.5442 81.4865 49.323 81.7503 49.1382C81.9679 48.9864 82.2384 48.861 82.5616 48.7619C82.8584 48.6827 83.1618 48.6431 83.4718 48.6431C84.5205 48.6431 85.2724 48.9633 85.7275 49.6036C85.833 49.7554 85.9122 49.9369 85.965 50.1482C86.0243 50.3594 86.054 50.6201 86.054 50.9304H85.0152C85.0152 50.5673 84.9624 50.2967 84.8569 50.1185C84.7513 49.96 84.5667 49.8247 84.3028 49.7125C84.039 49.5937 83.7554 49.5343 83.452 49.5343C83.0035 49.5343 82.6407 49.6399 82.3637 49.8511C82.0933 50.0557 81.958 50.3066 81.958 50.6036C81.958 50.8149 82.0108 50.9799 82.1163 51.0987C82.2219 51.2109 82.4165 51.3198 82.7001 51.4255L84.9657 52.2671C85.8627 52.5972 86.3112 53.1351 86.3112 53.8811C86.3112 54.2111 86.2255 54.5247 86.054 54.8217C85.8891 55.1188 85.6583 55.3663 85.3614 55.5643C84.9459 55.8548 84.3325 56 83.5212 56C82.5978 56 81.8888 55.8053 81.3941 55.4158C80.906 55.0263 80.662 54.4686 80.662 53.7424V53.5048Z" fill="#363431"/>
<path d="M97.4693 48.7817H98.4587V51.7027H101.803V48.7817H102.792V55.8713H101.803V52.5939H98.4587V55.8713H97.4693V48.7817Z" fill="#363431"/>
<path d="M116.235 48.7817H117.274L119.807 55.8713H118.728L118.026 53.7622H115.305L114.563 55.8713H113.505L116.235 48.7817ZM116.71 49.861L115.632 52.9602H117.749L116.71 49.861Z" fill="#363431"/>
<path d="M130.638 48.7817H133.359C133.821 48.7817 134.194 48.8081 134.477 48.861C134.734 48.9204 134.955 49.0227 135.14 49.1679C135.661 49.5442 135.922 50.0888 135.922 50.8017C135.922 51.2637 135.813 51.6697 135.595 52.0196C135.384 52.3628 135.081 52.6071 134.685 52.7523C134.428 52.8513 134.032 52.9008 133.498 52.9008H131.628V55.8713H130.638V48.7817ZM131.628 52.0097H133.171C133.725 52.0097 134.147 51.937 134.438 51.7918C134.734 51.64 134.883 51.3231 134.883 50.8413C134.883 50.399 134.748 50.0954 134.477 49.9303C134.207 49.7587 133.827 49.6729 133.339 49.6729H131.628V52.0097Z" fill="#363431"/>
<path d="M147.01 48.7817H152.096V49.6729H148V51.7522H151.789V52.6434H148V54.9801H152.145V55.8713H147.01V48.7817Z" fill="#363431"/>
<path d="M0 40.6063H155" stroke="#363431"/>
<path d="M0 1H155" stroke="#363431"/>
</svg>
